<?xml version="1.0" standalone="no"?>
<!DOCTYPE svg PUBLIC "-//W3C//DTD SVG 20010904//EN"
 "http://www.w3.org/TR/2001/REC-SVG-20010904/DTD/svg10.dtd">
<svg version="1.0" xmlns="http://www.w3.org/2000/svg"
 width="1081.000000pt" height="1081.000000pt" viewBox="0 0 1081.000000 1081.000000"
 preserveAspectRatio="xMidYMid meet">

<g transform="translate(0.000000,1081.000000) scale(0.100000,-0.100000)"
fill="#000000" stroke="none">
<path d="M5127 10379 c-966 -50 -1923 -398 -2702 -983 -74 -55 -225 -176 -251
-201 -6 -5 -42 -37 -80 -70 -140 -121 -287 -270 -459 -465 -147 -167 -377
-483 -497 -685 -403 -675 -632 -1388 -698 -2175 -14 -163 -14 -618 0 -790 92
-1165 586 -2253 1399 -3084 407 -415 822 -719 1336 -979 538 -271 1085 -431
1725 -504 219 -24 790 -24 1010 0 1054 118 1993 523 2760 1192 147 127 377
357 506 505 154 175 401 514 487 667 7 12 42 72 79 135 226 381 421 887 532
1378 72 315 106 607 113 975 11 564 -54 1050 -208 1560 -105 346 -289 766
-469 1068 -279 470 -650 917 -1030 1239 -208 178 -324 266 -500 384 -743 499
-1607 785 -2515 834 -211 11 -306 11 -538 -1z m803 -688 c867 -112 1630 -448
2285 -1006 106 -90 344 -323 430 -421 101 -115 217 -263 301 -384 111 -160
103 -148 203 -321 30 -52 59 -97 65 -101 6 -4 8 -8 4 -8 -4 0 5 -21 20 -47 45
-78 145 -298 199 -438 368 -956 386 -2025 50 -2985 -126 -357 -281 -666 -500
-995 -299 -448 -729 -876 -1179 -1174 -566 -374 -1185 -606 -1848 -691 -752
-97 -1525 8 -2225 302 -603 253 -1157 655 -1583 1148 -68 79 -150 178 -181
220 -31 41 -58 77 -61 80 -3 3 -42 59 -86 125 -364 538 -607 1178 -694 1824
-74 559 -41 1141 96 1661 227 863 681 1594 1363 2192 206 180 485 378 709 500
527 288 1062 460 1632 523 205 23 214 23 535 20 234 -2 336 -8 465 -24z"/>
<path d="M3150 6915 l0 -76 87 3 88 3 3 48 c2 27 1 60 -2 73 -6 23 -10 24 -91
24 l-85 0 0 -75z"/>
<path d="M4140 6915 l0 -75 88 0 88 0 -1 75 0 75 -87 0 -88 0 0 -75z"/>
<path d="M6426 6974 c-3 -9 -6 -35 -6 -59 0 -74 2 -75 96 -75 l84 0 0 75 0 75
-84 0 c-67 0 -85 -3 -90 -16z"/>
<path d="M7949 6979 c-7 -4 -10 -48 -8 -127 l4 -120 -37 19 c-53 27 -127 25
-188 -6 -92 -46 -133 -130 -132 -265 1 -137 44 -225 129 -261 74 -32 175 -20
212 24 19 23 28 21 35 -8 6 -24 10 -25 75 -25 49 0 70 4 74 14 3 7 6 180 6
385 0 344 -1 371 -17 371 -9 1 -45 2 -80 3 -34 2 -67 0 -73 -4z m-40 -345 l31
-6 0 -138 0 -137 -25 -11 c-32 -15 -80 -15 -107 -1 -29 15 -48 70 -48 136 0
138 39 179 149 157z"/>
<path d="M2127 6933 c-2 -21 -5 -96 -6 -167 -1 -71 -3 -132 -5 -135 -2 -3 -7
-99 -10 -213 l-7 -208 80 0 81 0 2 183 c2 234 4 322 7 372 2 27 18 -39 51
-203 27 -133 54 -267 60 -297 l11 -55 124 0 c119 0 123 1 128 23 9 34 75 349
98 461 11 55 22 102 24 105 3 2 5 -47 6 -110 0 -63 1 -132 3 -154 1 -22 3
-104 4 -183 l2 -143 102 3 c95 3 103 4 103 23 -1 50 -19 501 -21 508 -1 4 -2
57 -3 117 l-1 110 -149 0 -149 0 -22 -97 c-13 -54 -42 -190 -66 -303 -23 -113
-43 -200 -43 -195 -1 14 -67 391 -87 503 l-17 92 -148 0 -147 0 -5 -37z"/>
<path d="M5058 6884 l-78 -25 0 -49 0 -50 -40 0 -40 0 0 -60 0 -60 40 0 40 0
0 -153 c0 -139 2 -157 23 -197 40 -82 141 -110 256 -73 56 18 56 16 40 96 -11
53 -12 55 -36 46 -37 -14 -80 -11 -98 7 -13 13 -15 37 -13 143 l3 126 68 3 67
3 0 59 0 60 -70 0 -70 0 0 75 c0 41 -3 75 -7 75 -5 -1 -43 -12 -85 -26z"/>
<path d="M3697 6760 c-16 -5 -44 -21 -63 -35 l-35 -26 -10 30 c-11 30 -13 31
-70 31 l-58 0 -3 -265 c-2 -146 -1 -270 0 -275 2 -6 41 -10 88 -10 l84 0 0
204 0 204 31 11 c48 17 75 13 106 -13 l28 -24 3 -191 3 -191 90 0 89 0 0 179
c0 263 -17 322 -104 362 -43 20 -129 24 -179 9z"/>
<path d="M4549 6754 c-30 -9 -59 -27 -78 -49 -27 -31 -31 -43 -31 -93 0 -81
27 -116 128 -171 85 -46 98 -61 82 -91 -14 -27 -66 -33 -130 -16 -30 8 -57 13
-59 10 -2 -2 -10 -27 -17 -56 -16 -61 -15 -62 66 -79 76 -16 169 -7 221 22 63
35 89 79 89 149 0 80 -25 114 -121 161 -41 21 -82 45 -89 55 -13 14 -11 19 10
36 25 20 47 21 137 2 36 -7 41 3 46 81 2 36 0 40 -28 46 -53 12 -179 8 -226
-7z"/>
<path d="M5518 6758 c-51 -13 -122 -79 -143 -130 -9 -24 -19 -75 -22 -113 -10
-131 40 -238 133 -285 42 -21 63 -25 144 -25 91 0 191 22 205 45 6 10 -14 101
-25 113 -4 5 -24 2 -43 -7 -56 -23 -121 -30 -161 -16 -39 13 -76 52 -76 81 0
18 11 19 166 19 l167 0 -6 79 c-10 129 -57 204 -146 236 -48 17 -136 18 -193
3z m139 -126 c13 -8 33 -55 33 -78 0 -11 -17 -14 -81 -14 l-81 0 6 32 c9 46
33 68 75 68 20 0 41 -4 48 -8z"/>
<path d="M6165 6750 c-16 -10 -37 -29 -46 -42 l-17 -22 -7 37 -7 37 -64 0 -64
0 0 -275 0 -275 90 0 90 0 0 195 c0 223 -3 216 95 216 52 0 54 2 60 31 4 16 4
50 0 74 l-6 44 -47 0 c-30 0 -58 -7 -77 -20z"/>
<path d="M6888 6760 c-73 -22 -136 -84 -163 -161 -20 -56 -19 -183 1 -244 23
-65 79 -120 145 -139 160 -48 312 11 356 137 23 68 23 206 0 259 -45 99 -137
158 -247 157 -36 0 -77 -4 -92 -9z m144 -139 c53 -50 39 -263 -17 -285 -56
-21 -107 7 -119 66 -11 55 -6 155 9 191 23 55 85 69 127 28z"/>
<path d="M8388 6756 c-21 -8 -49 -21 -62 -30 -113 -73 -140 -297 -52 -424 63
-92 212 -126 355 -83 38 12 73 26 76 31 3 5 0 35 -7 65 -10 43 -16 54 -28 49
-50 -20 -143 -36 -174 -30 -44 8 -83 42 -92 79 l-6 27 166 0 166 0 0 58 c0
120 -51 215 -135 253 -48 22 -152 24 -207 5z m138 -124 c16 -11 34 -48 34 -71
0 -19 -6 -21 -80 -21 -66 0 -80 3 -80 15 0 22 27 72 42 78 20 8 72 8 84 -1z"/>
<path d="M3090 6705 c0 -54 1 -56 30 -61 l30 -6 0 -214 0 -214 90 0 90 0 0
275 0 275 -120 0 -120 0 0 -55z"/>
<path d="M4080 6706 c0 -52 1 -55 30 -61 l30 -7 0 -214 0 -214 90 0 90 0 0
275 0 275 -120 0 -120 0 0 -54z"/>
<path d="M6360 6705 c0 -54 0 -54 35 -61 l35 -6 0 -214 0 -214 85 0 85 0 0
275 0 275 -120 0 -120 0 0 -55z"/>
<path d="M3444 5865 l-1 -75 89 0 88 0 0 75 0 75 -87 0 -88 0 -1 -75z"/>
<path d="M4397 5874 c-4 -37 -4 -71 -1 -75 3 -5 43 -9 90 -9 l84 0 0 75 0 75
-84 0 -83 0 -6 -66z"/>
<path d="M6272 5805 c2 -69 3 -125 2 -125 0 0 -16 8 -35 18 -73 37 -198 13
-255 -50 -53 -57 -68 -107 -69 -218 0 -86 4 -113 21 -151 41 -87 105 -129 199
-129 59 0 85 9 122 43 l22 20 6 -26 c8 -31 46 -42 111 -32 l44 6 0 385 0 384
-86 0 -85 0 3 -125z m-33 -226 l32 -11 -3 -132 -3 -131 -38 -19 c-50 -24 -94
-13 -119 30 -21 36 -27 171 -9 215 20 53 73 71 140 48z"/>
<path d="M2623 5908 c2 -7 39 -132 81 -278 118 -403 137 -464 150 -472 12 -8
241 -6 249 2 3 3 52 167 110 365 58 199 109 368 113 378 6 15 -3 17 -93 17
l-99 0 -39 -157 c-85 -354 -113 -457 -118 -443 -3 8 -38 147 -77 308 l-72 292
-105 0 c-80 0 -104 -3 -100 -12z"/>
<path d="M4840 5701 c-68 -24 -131 -90 -150 -155 -17 -63 -9 -210 14 -256 25
-48 64 -88 111 -113 34 -19 56 -22 150 -22 91 0 118 4 157 22 l46 21 -15 60
-15 60 -56 -19 c-71 -24 -138 -24 -178 0 -33 20 -61 76 -43 86 5 4 73 6 152 5
78 -1 148 -1 155 -1 18 1 16 127 -3 183 -17 49 -62 101 -108 124 -48 25 -154
28 -217 5z m150 -131 c17 -17 21 -30 20 -77 0 -5 -34 -8 -75 -8 l-75 0 0 28
c0 63 86 101 130 57z"/>
<path d="M5542 5711 c-18 -5 -50 -21 -70 -35 l-37 -26 -13 30 c-11 29 -15 30
-72 30 l-60 0 0 -275 c0 -151 1 -275 3 -276 1 0 37 -3 79 -5 68 -5 78 -3 87
14 6 11 10 98 10 207 0 143 3 190 13 196 23 15 105 10 122 -7 9 -8 17 -16 18
-17 1 -1 4 -90 7 -197 l6 -195 85 0 85 0 3 198 c1 113 -2 215 -8 236 -12 47
-43 87 -81 106 -35 19 -132 27 -177 16z"/>
<path d="M6698 5710 c-31 -5 -72 -16 -91 -24 l-35 -14 21 -59 c11 -32 21 -59
22 -61 1 -1 15 2 31 9 16 6 55 15 87 19 70 10 115 -2 128 -37 18 -48 15 -50
-88 -55 -156 -6 -223 -54 -223 -160 0 -100 60 -168 155 -176 74 -6 119 4 156
35 25 22 32 24 40 12 5 -8 9 -20 9 -26 0 -7 1 -13 3 -13 1 -1 30 -4 65 -7 l62
-5 0 185 c0 102 -5 209 -11 237 -13 60 -48 105 -97 126 -45 19 -160 26 -234
14z m172 -374 l0 -54 -44 -11 c-71 -18 -106 4 -106 64 0 35 36 55 97 55 l53 0
0 -54z"/>
<path d="M3382 5653 c3 -56 4 -58 33 -63 l30 -5 3 -210 c1 -127 6 -212 13
-215 5 -4 42 -6 82 -6 l72 1 3 278 2 277 -120 0 -121 0 3 -57z"/>
<path d="M3700 5698 c0 -15 132 -476 148 -518 9 -24 13 -25 111 -28 167 -5
144 -33 234 276 43 147 78 270 77 275 0 4 -38 7 -84 7 -72 0 -85 -3 -90 -17
-3 -10 -25 -110 -50 -222 -25 -112 -47 -206 -49 -208 -2 -2 -26 97 -53 219
l-49 223 -98 3 c-75 2 -97 0 -97 -10z"/>
<path d="M4330 5655 c0 -53 1 -55 33 -63 l32 -8 3 -217 2 -217 85 0 85 0 0
280 0 280 -120 0 -120 0 0 -55z"/>
<path d="M7360 5707 c0 -2 29 -100 64 -218 35 -118 72 -242 81 -277 20 -70 9
-65 105 -46 34 6 37 -3 15 -46 -17 -32 -61 -60 -95 -60 -12 0 -44 10 -71 21
-27 12 -51 20 -53 18 -2 -2 -15 -30 -29 -61 l-25 -57 24 -15 c38 -25 127 -45
180 -39 50 5 116 36 145 69 39 44 64 111 149 398 50 167 90 306 90 310 0 3
-38 6 -85 6 l-84 0 -9 -33 c-5 -18 -29 -118 -52 -221 -24 -103 -47 -181 -51
-174 -4 7 -26 96 -48 198 -23 102 -45 195 -48 208 -5 21 -10 22 -104 22 -54 0
-99 -1 -99 -3z"/>
<path d="M5810 4810 l0 -80 85 0 85 0 0 80 0 80 -85 0 -85 0 0 -80z"/>
<path d="M3907 4858 c-4 -12 -6 -188 -6 -390 l1 -368 47 0 c44 0 48 2 64 35
l16 34 29 -29 c83 -82 249 -53 325 58 56 80 69 200 35 316 -18 59 -91 129
-151 144 -51 13 -128 2 -157 -22 -34 -29 -35 -25 -32 110 l4 134 -85 0 c-79 0
-85 -1 -90 -22z m296 -329 c44 -20 64 -98 52 -195 -9 -75 -49 -120 -97 -110
-18 3 -42 16 -55 28 -21 20 -23 29 -23 138 l0 118 33 16 c38 19 58 20 90 5z"/>
<path d="M2755 4862 c-3 -3 -5 -123 -5 -267 0 -302 7 -340 71 -410 57 -62 124
-88 229 -88 107 -1 173 25 230 91 64 72 70 107 70 409 0 145 -1 263 -2 264
-20 5 -137 9 -155 4 l-23 -5 0 -255 c0 -155 -4 -265 -11 -282 -37 -98 -164
-112 -210 -22 -18 36 -20 59 -20 289 0 138 -3 258 -6 266 -4 12 -22 15 -84 13
-43 -1 -81 -4 -84 -7z"/>
<path d="M3724 4658 c-18 -4 -46 -24 -62 -42 -31 -36 -42 -32 -42 15 0 22 -30
32 -86 27 l-39 -3 -3 -277 -2 -278 85 0 c61 0 85 4 86 13 0 6 0 94 -1 195 l-1
183 38 15 c25 11 52 14 80 10 l43 -6 0 75 c0 64 -2 75 -17 76 -10 0 -25 2 -33
3 -8 2 -29 -1 -46 -6z"/>
<path d="M4720 4659 c-82 -6 -156 -24 -165 -39 -7 -11 25 -120 34 -120 3 0 28
7 55 15 72 22 151 20 176 -5 11 -11 20 -31 20 -44 0 -22 -3 -23 -95 -28 -154
-8 -225 -60 -225 -165 0 -109 70 -176 185 -177 46 -1 70 5 103 24 23 13 42 27
42 32 0 20 19 5 29 -22 10 -29 12 -30 71 -30 l61 0 -3 213 c-3 184 -5 217 -22
250 -38 77 -122 108 -266 96z m120 -374 l0 -54 -39 -12 c-71 -21 -123 14 -107
74 7 31 39 45 99 46 l47 1 0 -55z"/>
<path d="M5382 4656 c-29 -8 -64 -24 -77 -36 -26 -25 -31 -24 -49 12 -11 22
-38 26 -121 19 -6 -1 -11 -101 -12 -276 l-2 -275 90 0 89 0 0 205 c0 229 -1
225 75 225 85 0 95 -28 95 -256 l0 -174 91 0 90 0 -3 213 c-3 196 -5 215 -26
258 -38 78 -132 111 -240 85z"/>
<path d="M6247 4656 c-84 -18 -129 -65 -135 -139 -7 -87 27 -134 136 -187 51
-25 82 -52 82 -74 0 -2 -7 -12 -16 -20 -19 -20 -94 -20 -146 -2 l-36 13 -11
-42 c-6 -23 -13 -50 -17 -58 -16 -43 197 -70 276 -34 75 33 111 86 112 161 1
81 -38 128 -142 171 -53 22 -80 43 -80 61 0 31 80 44 150 24 19 -5 37 -6 41
-2 4 4 10 32 13 64 l7 56 -38 6 c-94 13 -142 14 -196 2z"/>
<path d="M6905 4665 c-5 -2 -27 -6 -47 -10 -21 -3 -51 -17 -68 -32 -17 -14
-32 -24 -33 -22 -2 2 -11 17 -21 32 -16 26 -22 28 -69 25 l-52 -3 -3 -278 -2
-277 85 0 c61 0 85 4 86 13 0 6 0 99 -1 205 l-1 192 26 10 c33 13 81 13 105 0
32 -17 40 -67 40 -246 l0 -174 90 0 91 0 -1 206 c-2 228 -3 224 62 224 90 0
98 -20 98 -250 l0 -180 90 0 90 0 0 203 c0 216 -7 260 -46 306 -60 71 -226 73
-306 4 -15 -13 -20 -12 -51 11 -18 14 -48 28 -65 31 -65 10 -87 13 -97 10z"/>
<path d="M7771 4660 c-140 -29 -224 -161 -207 -325 13 -128 87 -215 201 -236
137 -25 254 22 306 123 40 78 40 228 0 306 -23 45 -81 99 -125 117 -44 18
-124 25 -175 15z m101 -131 c31 -16 48 -71 48 -151 0 -121 -46 -179 -119 -148
-26 10 -34 22 -47 67 -26 90 -2 224 43 236 32 8 54 7 75 -4z"/>
<path d="M5757 4654 c-4 -4 -7 -29 -7 -56 0 -45 2 -50 30 -59 l30 -11 0 -214
0 -214 90 0 90 0 -2 278 -3 277 -110 3 c-61 2 -114 0 -118 -4z"/>
<path d="M5160 3020 c-97 -5 -111 -7 -60 -9 64 -4 64 -4 20 -10 -37 -6 -40 -8
-20 -13 24 -5 24 -5 3 -7 -25 -1 -33 -31 -9 -31 24 0 30 -22 11 -37 -16 -11
-16 -13 -3 -13 9 0 18 -6 20 -12 4 -10 256 -14 1199 -18 l1194 -5 60 -28 c81
-38 118 -68 156 -127 l32 -50 124 0 c68 0 123 3 123 8 0 19 -80 124 -144 187
-76 76 -134 114 -224 148 l-57 22 -1150 1 c-632 0 -1206 -3 -1275 -6z"/>
<path d="M6557 2583 c67 -3 81 -6 76 -18 -3 -8 -11 -15 -19 -15 -9 0 -14 -11
-14 -27 0 -17 3 -23 8 -16 6 9 11 7 20 -7 11 -18 9 -20 -10 -21 -22 -1 -22 -1
2 -9 l25 -8 -27 -1 c-16 -1 -28 -5 -28 -11 0 -7 234 -10 682 -10 l681 0 41 24
c49 29 71 64 62 100 l-6 26 -788 -2 c-433 -1 -750 -4 -705 -5z m156 -120 c-7
-2 -21 -2 -30 0 -10 3 -4 5 12 5 17 0 24 -2 18 -5z"/>
<path d="M6560 2449 c0 -5 5 -7 10 -4 6 3 10 8 10 11 0 2 -4 4 -10 4 -5 0 -10
-5 -10 -11z"/>
</g>
</svg>
